<?xml version="1.0" standalone="no"?><svg xmlns="http://www.w3.org/2000/svg" viewBox="0 0 1440 320"><path fill="#273036" fill-opacity="1" d="M0,64L30,80C60,96,120,128,180,160C240,192,300,224,360,240C420,256,480,256,540,250.7C600,245,660,235,720,224C780,213,840,203,900,202.7C960,203,1020,213,1080,234.7C1140,256,1200,288,1260,298.7C1320,309,1380,299,1410,293.3L1440,288L1440,0L1410,0C1380,0,1320,0,1260,0C1200,0,1140,0,1080,0C1020,0,960,0,900,0C840,0,780,0,720,0C660,0,600,0,540,0C480,0,420,0,360,0C300,0,240,0,180,0C120,0,60,0,30,0L0,0Z"></path></svg>